<?xml version="1.0" encoding="utf-8"?>
<!-- Generator: Adobe Illustrator 16.0.0, SVG Export Plug-In . SVG Version: 6.00 Build 0)  -->
<!DOCTYPE svg PUBLIC "-//W3C//DTD SVG 1.1//EN" "http://www.w3.org/Graphics/SVG/1.1/DTD/svg11.dtd">
<svg version="1.1" id="图层_1" xmlns="http://www.w3.org/2000/svg" xmlns:xlink="http://www.w3.org/1999/xlink" x="0px" y="0px"
	 width="200px" height="200px" viewBox="0 0 200 200" enable-background="new 0 0 200 200" xml:space="preserve">
<path fill-rule="evenodd" clip-rule="evenodd" fill="#E60012" d="M21,78.018C23.189,38.187,56.542,5.304,95.922,5.002
	c39.251-0.3,73.926,32.248,74.394,71.694c0.131,11.029-3.476,22.875-8.182,33.045c-14.455,31.237-37.337,56.641-60.029,82.038
	c-3.604,4.036-7.372,4.137-11.063,0.119c-25.242-27.468-49.329-55.813-64.004-90.662C23.967,93.942,22.959,85.779,21,78.018z"/>
<path fill-rule="evenodd" clip-rule="evenodd" d="M98.325,136.375c32.083,0.047,57.66-25.457,57.66-57.493
	c0-31.511-25.558-57.146-57.06-57.234C66.907,21.558,41.223,47.17,41.264,79.146C41.306,110.694,66.863,136.329,98.325,136.375z"/>
<path fill-rule="evenodd" clip-rule="evenodd" fill="#FFFFFF" d="M98.325,136.375c-31.462-0.046-57.019-25.681-57.061-57.229
	C41.223,47.17,66.907,21.558,98.925,21.647c31.502,0.088,57.06,25.723,57.06,57.234C155.984,110.918,130.408,136.422,98.325,136.375
	z"/>
<g>
	<path fill-rule="evenodd" clip-rule="evenodd" fill="#E60012" d="M140.885,76.839c-0.11,23.498-19.561,42.989-43.07,43.16
		C73.858,120.172,53.854,100.25,54,76.365c0.143-23.415,19.72-43.027,43.15-43.232C121.003,32.925,140.996,52.905,140.885,76.839z
		 M97.247,111.742c19.46,0.123,35.145-15.21,35.405-34.612c0.261-19.456-14.973-35.268-34.356-35.657
		C78.311,41.07,62.309,56.724,62.336,76.651C62.363,96.114,77.79,111.619,97.247,111.742z"/>
	<path fill-rule="evenodd" clip-rule="evenodd" fill="#E60012" d="M69.822,84.763c8.063-2.138,13.079-1.246,17.212,6.749
		c4.493,8.693,17.337,8.28,21.431-0.759c4.114-9.093,10.003-6.959,16.684-6.353c-3.309,13.704-13.309,21.812-26.813,22.154
		C84.406,106.907,73.817,99.016,69.822,84.763z"/>
	<path fill-rule="evenodd" clip-rule="evenodd" fill="#E60012" d="M87.552,64.667c4.865,4.319,10.499,8.648,15.192,13.829
		c1.794,1.98,2.759,6.55,1.688,8.778c-1.147,2.383-5.65,5.181-7.767,4.578c-2.93-0.838-6.434-4.342-7.144-7.314
		C88.003,78.182,88.12,71.437,87.552,64.667z"/>
</g>
</svg>
