<?xml version="1.0" encoding="utf-8"?>
<!-- Generator: Adobe Illustrator 16.0.0, SVG Export Plug-In . SVG Version: 6.00 Build 0)  -->
<!DOCTYPE svg PUBLIC "-//W3C//DTD SVG 1.1//EN" "http://www.w3.org/Graphics/SVG/1.1/DTD/svg11.dtd">
<svg version="1.1" id="图层_1" xmlns="http://www.w3.org/2000/svg" xmlns:xlink="http://www.w3.org/1999/xlink" x="0px" y="0px"
	 width="200px" height="200px" viewBox="0 0 200 200" enable-background="new 0 0 200 200" xml:space="preserve">
<path fill-rule="evenodd" clip-rule="evenodd" fill="#E60012" d="M21,78.018C23.189,38.187,56.542,5.304,95.922,5.002
	c39.251-0.3,73.926,32.248,74.394,71.694c0.131,11.029-3.476,22.875-8.182,33.045c-14.455,31.237-37.337,56.641-60.029,82.038
	c-3.604,4.036-7.372,4.137-11.063,0.119c-25.242-27.468-49.329-55.813-64.004-90.662C23.967,93.942,22.959,85.779,21,78.018z"/>
<path fill-rule="evenodd" clip-rule="evenodd" d="M98.325,136.375c32.083,0.047,57.66-25.457,57.66-57.493
	c0-31.511-25.558-57.146-57.06-57.234C66.907,21.558,41.223,47.17,41.264,79.146C41.306,110.694,66.863,136.329,98.325,136.375z"/>
<path fill-rule="evenodd" clip-rule="evenodd" fill="#FFFFFF" d="M98.325,136.375c-31.462-0.046-57.019-25.681-57.061-57.229
	C41.223,47.17,66.907,21.558,98.925,21.647c31.502,0.088,57.06,25.723,57.06,57.234C155.984,110.918,130.408,136.422,98.325,136.375
	z"/>
<path fill="#E60012" d="M112.55,76.251l18.716,26.059c1.096,1.538,1.734,3.588,1.734,5.553c0,4.868-3.012,9.142-11.777,9.142H73.11
	c-8.765,0-11.869-4.273-11.869-9.142c0-1.965,0.64-4.015,1.735-5.639l9.219-12.73l9.13-13.242c2.374-3.588,3.743-7.775,3.743-12.217
	V47.887c0-1.198-0.273-2.308-0.729-3.333h-2.466c-1.461,0-2.738-1.111-2.738-2.564v-0.427c0-1.366,1.187-2.563,2.738-2.563h30.584
	c1.46,0,2.739,1.112,2.739,2.563v0.513c0,1.367-1.187,2.564-2.739,2.564h-2.739c-0.364,0.938-0.729,2.049-0.729,3.247v16.231
	C108.989,68.476,110.175,72.747,112.55,76.251z M107.529,79.156c-3.015-4.444-4.475-9.74-4.475-15.122V44.641h-11.96v19.394
	c0,5.552-1.643,10.764-4.565,15.122l-18.624,26.229c-0.457,0.683-0.73,1.622-0.73,2.478c0,1.11,0.638,1.879,1.095,2.308
	c0.821,0.768,2.282,1.366,4.748,1.366h48.204c2.373,0,3.743-0.599,4.565-1.283c0.547-0.426,1.279-1.28,1.279-2.391
	c0-0.855-0.275-1.795-0.732-2.478L107.529,79.156z M119.944,108.888H74.297c-1.37,0-2.557-1.111-2.557-2.393
	c0-0.514,0.183-1.024,0.456-1.367l15.156-21.444h19.356l15.338,21.444v-0.086c0.273,0.343,0.457,0.939,0.457,1.368
	C122.502,107.69,121.405,108.888,119.944,108.888L119.944,108.888z"/>
<circle fill="#E60012" cx="92.857" cy="77.857" r="2.143"/>
<circle fill="#E60012" cx="99.143" cy="74.143" r="2.143"/>
<circle fill="#E60012" cx="95.286" cy="68.143" r="2.143"/>
</svg>
