<?xml version="1.0" encoding="utf-8"?>
<!-- Generator: Adobe Illustrator 16.0.0, SVG Export Plug-In . SVG Version: 6.00 Build 0)  -->
<!DOCTYPE svg PUBLIC "-//W3C//DTD SVG 1.1//EN" "http://www.w3.org/Graphics/SVG/1.1/DTD/svg11.dtd">
<svg version="1.1" id="图层_1" xmlns="http://www.w3.org/2000/svg" xmlns:xlink="http://www.w3.org/1999/xlink" x="0px" y="0px"
	 width="200px" height="200px" viewBox="0 0 200 200" enable-background="new 0 0 200 200" xml:space="preserve">
<path fill-rule="evenodd" clip-rule="evenodd" fill="#0B83FF" d="M21,78.018C23.189,38.187,56.542,5.304,95.922,5.002
	c39.251-0.3,73.926,32.248,74.394,71.694c0.131,11.029-3.476,22.875-8.182,33.045c-14.455,31.237-37.337,56.641-60.029,82.038
	c-3.604,4.036-7.372,4.137-11.063,0.119c-25.242-27.468-49.329-55.813-64.004-90.662C23.967,93.942,22.959,85.779,21,78.018z"/>
<path fill-rule="evenodd" clip-rule="evenodd" d="M98.325,136.375c32.083,0.047,57.66-25.457,57.66-57.493
	c0-31.511-25.558-57.146-57.06-57.234C66.907,21.558,41.223,47.17,41.264,79.146C41.306,110.694,66.863,136.329,98.325,136.375z"/>
<path fill-rule="evenodd" clip-rule="evenodd" fill="#FFFFFF" d="M98.325,136.375c-31.462-0.046-57.019-25.681-57.061-57.229
	C41.223,47.17,66.907,21.558,98.925,21.647c31.502,0.088,57.06,25.723,57.06,57.234C155.984,110.918,130.408,136.422,98.325,136.375
	z"/>
<g>
	<path fill-rule="evenodd" clip-rule="evenodd" fill="#0B83FF" d="M66.447,75.4c2.13,2.171,5.794,4.149,6.102,6.557
		c0.845,6.641,0.294,13.461,0.294,21.308c19.975,0,39.233,0,59.917,0c0-7.289-0.535-14.382,0.296-21.311
		c0.285-2.395,3.969-4.383,6.1-6.554c0,12.118,0,24.235,0,36.356c-24.234,0-48.474,0-72.709,0
		C66.447,99.635,66.447,87.518,66.447,75.4z"/>
	<path fill-rule="evenodd" clip-rule="evenodd" fill="#0B83FF" d="M66.447,45.863c9.087,0,18.177,0,27.265,0
		c0.056,1.131,0.11,2.26,0.167,3.392c-8.684,4.364-18.111,2.299-27.433,1.149C66.447,48.891,66.447,47.374,66.447,45.863z"/>
	<path fill-rule="evenodd" clip-rule="evenodd" fill="#0B83FF" d="M66.447,59.493c6.694,0.38,13.385,0.761,20.081,1.142
		c0.047,1.506,0.094,3.014,0.139,4.519c-6.739,0.386-13.48,0.771-20.22,1.157C66.447,64.039,66.447,61.766,66.447,59.493z"/>
	<path fill-rule="evenodd" clip-rule="evenodd" fill="#0B83FF" d="M110.102,45.623c14.473,13.399,17.513,23.135,9.995,30.811
		c-5.272,5.381-14.96,5.284-20.36-0.208C92.23,68.59,95.496,58.529,110.102,45.623z M109.587,53.966
		c-3.569,6.24-11.414,10.193-4.545,17.755c1.62,1.78,8.277,1.978,9.81,0.316C121.521,64.799,115.109,60.144,109.587,53.966z"/>
	<path fill-rule="evenodd" clip-rule="evenodd" fill="#0B83FF" d="M123.729,94.316c-13.925,0-27.849,0-43.226,0
		C87.813,88.271,113.669,87.546,123.729,94.316z"/>
</g>
<circle fill-rule="evenodd" clip-rule="evenodd" fill="#0B83FF" cx="82.022" cy="80.59" r="3.463"/>
</svg>
