<?xml version="1.0" encoding="utf-8"?>
<!-- Generator: Adobe Illustrator 16.0.0, SVG Export Plug-In . SVG Version: 6.00 Build 0)  -->
<!DOCTYPE svg PUBLIC "-//W3C//DTD SVG 1.1//EN" "http://www.w3.org/Graphics/SVG/1.1/DTD/svg11.dtd">
<svg version="1.1" id="图层_1" xmlns="http://www.w3.org/2000/svg" xmlns:xlink="http://www.w3.org/1999/xlink" x="0px" y="0px"
	 width="100px" height="100px" viewBox="0 0 100 100" enable-background="new 0 0 100 100" xml:space="preserve">
<g>
	<path fill="#F9E95E" d="M0.602,86.679L47.495,7.517c0,0,2.094-3.383,5.207,0l46.685,79.162c0,0,2.707,7.308-3.247,7.308H4.527
		C4.527,93.986-1.969,92.904,0.602,86.679z"/>
	<path d="M55.964,58.652c0,2.983-2.672,5.403-5.965,5.403l0,0c-3.292,0-5.962-2.42-5.962-5.403V36.628
		c0-2.986,2.67-5.405,5.962-5.405l0,0c3.293,0,5.965,2.419,5.965,5.405V58.652z"/>
	<circle cx="50" cy="75.553" r="5.964"/>
</g>
</svg>
