<?xml version="1.0" encoding="utf-8"?>
<!-- Generator: Adobe Illustrator 16.0.0, SVG Export Plug-In . SVG Version: 6.00 Build 0)  -->
<!DOCTYPE svg PUBLIC "-//W3C//DTD SVG 1.1//EN" "http://www.w3.org/Graphics/SVG/1.1/DTD/svg11.dtd">
<svg version="1.1" id="图层_1" xmlns="http://www.w3.org/2000/svg" xmlns:xlink="http://www.w3.org/1999/xlink" x="0px" y="0px"
	 width="32px" height="32px" viewBox="0 0 32 32" enable-background="new 0 0 32 32" xml:space="preserve">
<path fill="#0000FF" d="M16.005,27.504c0.054-0.047,9.468-8.14,9.468-16.553C25.394,5.857,21.175,1.716,16,1.716
	c-5.174,0-9.473,4.14-9.473,9.235c0.001,8.731,9.414,16.508,9.468,16.553"/>
<title>map</title>
<path fill="#0000FF" d="M15.995,28.894c-0.026,0-0.05,0.001-0.076,0.001c-8.836,0.08-13.293-1.91-13.532-2.627
	c0.24-0.636,1.274-1.908,7.324-2.387c-0.557-0.638-1.193-1.434-1.831-2.23C2.945,22.209,0,23.402,0,26.189
	c0,4.06,10.03,5.094,15.999,5.094S32,30.169,32,26.189c0.001-2.945-3.661-4.219-8.995-4.696h-0.001
	c-0.638,0.796-1.194,1.594-1.831,2.228c6.607,0.398,8.04,1.752,8.358,2.467c-0.316,0.794-4.748,2.693-13.526,2.706"/>
<circle fill="#FFFFFF" cx="16" cy="10.885" r="7.273"/>
<g>
	<path fill="#FF0000" d="M11.512,14.492c0.458-0.801,0.705-2.01,0.741-3.625l0.669,0.036c-0.021,0.587-0.065,1.13-0.131,1.627
		c0.226,0.485,0.526,0.872,0.9,1.162v-3.368h-2.134v-0.66h1.854V8.372h-1.537v-0.66h1.537V6.428h0.705v1.284h1.519v0.66h-1.519
		v1.293h1.699v0.66h-1.446v1.401h1.374v0.651h-1.374v1.708c0.419,0.169,0.901,0.256,1.446,0.262c1.477,0.012,3.035,0,4.674-0.036
		c-0.108,0.271-0.192,0.509-0.253,0.714c-1.898,0.006-3.436-0.003-4.61-0.027c-1.458-0.027-2.455-0.554-2.988-1.582
		c-0.169,0.79-0.412,1.431-0.728,1.926C11.789,15.058,11.656,14.775,11.512,14.492z M16.927,12.16c0,0.325,0.162,0.488,0.488,0.488
		h1.555c0.338,0,0.527-0.147,0.569-0.443c0.036-0.271,0.069-0.675,0.1-1.211c0.187,0.084,0.416,0.172,0.688,0.262
		c-0.055,0.584-0.109,1.013-0.163,1.284c-0.091,0.506-0.458,0.759-1.103,0.759h-1.817c-0.669,0-1.004-0.343-1.004-1.03V9.33h2.821
		V7.612h-2.993V6.961h3.68v3.327h-0.687V9.981h-2.134V12.16z"/>
</g>
</svg>
